<?xml version="1.0" encoding="UTF-8" standalone="no"?>
<svg
   xmlns:dc="http://purl.org/dc/elements/1.1/"
   xmlns:cc="http://creativecommons.org/ns#"
   xmlns:rdf="http://www.w3.org/1999/02/22-rdf-syntax-ns#"
   xmlns:svg="http://www.w3.org/2000/svg"
   xmlns="http://www.w3.org/2000/svg"
   xmlns:sodipodi="http://sodipodi.sourceforge.net/DTD/sodipodi-0.dtd"
   xmlns:inkscape="http://www.inkscape.org/namespaces/inkscape"
   width="300"
   height="100"
   viewBox="0 0 79.374999 26.458334"
   version="1.1"
   id="svg8"
   inkscape:version="1.0.1 (3bc2e813f5, 2020-09-07)"
   sodipodi:docname="circle.svg">
  <defs
     id="defs2">
    <marker
       style="overflow:visible"
       orient="auto"
       refY="0"
       refX="0"
       id="RazorWire"
       inkscape:stockid="RazorWire"
       inkscape:isstock="true">
      <path
         d="M 0.022727273,-0.74009011 L 0.022727273,0.69740989 L -7.7585227,3.0099099 L 10.678977,3.0099099 L 3.4914773,0.69740989 L 3.4914773,-0.74009011 L 10.741477,-2.8963401 L -7.7272727,-2.8963401 L 0.022727273,-0.74009011 z "
         style="fill:#000000;fill-opacity:1;fill-rule:evenodd;stroke:#000000;stroke-width:0.1pt;stroke-opacity:1"
         transform="scale(0.8,0.8)"
         id="path1067" />
    </marker>
    <marker
       style="overflow:visible"
       id="Arrow1Sstart"
       refX="0.0"
       refY="0.0"
       orient="auto"
       inkscape:stockid="Arrow1Sstart"
       inkscape:isstock="true">
      <path
         transform="scale(0.2) translate(6,0)"
         style="fill-rule:evenodd;stroke:#000000;stroke-width:1pt;stroke-opacity:1;fill:#000000;fill-opacity:1"
         d="M 0.0,0.0 L 5.0,-5.0 L -12.5,0.0 L 5.0,5.0 L 0.0,0.0 z "
         id="path847" />
    </marker>
    <marker
       style="overflow:visible;"
       id="Arrow2Mend"
       refX="0.0"
       refY="0.0"
       orient="auto"
       inkscape:stockid="Arrow2Mend"
       inkscape:isstock="true">
      <path
         transform="scale(0.6) rotate(180) translate(0,0)"
         d="M 8.7185878,4.0337352 L -2.2072895,0.016013256 L 8.7185884,-4.0017078 C 6.9730900,-1.6296469 6.9831476,1.6157441 8.7185878,4.0337352 z "
         style="fill-rule:evenodd;stroke-width:0.625;stroke-linejoin:round;stroke:#000000;stroke-opacity:1;fill:#000000;fill-opacity:1"
         id="path862" />
    </marker>
    <marker
       style="overflow:visible;"
       id="Arrow1Lend"
       refX="0.0"
       refY="0.0"
       orient="auto"
       inkscape:stockid="Arrow1Lend"
       inkscape:isstock="true">
      <path
         transform="scale(0.8) rotate(180) translate(12.5,0)"
         style="fill-rule:evenodd;stroke:#000000;stroke-width:1pt;stroke-opacity:1;fill:#000000;fill-opacity:1"
         d="M 0.0,0.0 L 5.0,-5.0 L -12.5,0.0 L 5.0,5.0 L 0.0,0.0 z "
         id="path838" />
    </marker>
    <marker
       style="overflow:visible"
       id="Club"
       refX="0.0"
       refY="0.0"
       orient="auto"
       inkscape:stockid="Club"
       inkscape:isstock="true">
      <path
         transform="scale(0.6)"
         style="fill-rule:evenodd;stroke:#000000;stroke-width:0.74587913pt;stroke-opacity:1;fill:#000000;fill-opacity:1"
         d="M -1.5971367,-7.0977635 C -3.4863874,-7.0977635 -5.0235187,-5.5606321 -5.0235187,-3.6713813 C -5.0235187,-3.0147015 -4.7851656,-2.4444556 -4.4641095,-1.9232271 C -4.5028609,-1.8911157 -4.5437814,-1.8647646 -4.5806531,-1.8299921 C -5.2030765,-2.6849849 -6.1700514,-3.2751330 -7.3077730,-3.2751330 C -9.1970245,-3.2751331 -10.734155,-1.7380016 -10.734155,0.15124914 C -10.734155,2.0404999 -9.1970245,3.5776313 -7.3077730,3.5776313 C -6.3143268,3.5776313 -5.4391540,3.1355702 -4.8137404,2.4588126 C -4.9384274,2.8137041 -5.0235187,3.1803000 -5.0235187,3.5776313 C -5.0235187,5.4668819 -3.4863874,7.0040135 -1.5971367,7.0040135 C 0.29211394,7.0040135 1.8292454,5.4668819 1.8292454,3.5776313 C 1.8292454,2.7842354 1.5136868,2.0838028 1.0600576,1.5031550 C 2.4152718,1.7663868 3.7718375,2.2973711 4.7661444,3.8340272 C 4.0279463,3.0958289 3.5540908,1.7534117 3.5540908,-0.058529361 L 2.9247554,-0.10514681 L 3.5074733,-0.12845553 C 3.5074733,-1.9403966 3.9580199,-3.2828138 4.6962183,-4.0210121 C 3.7371277,-2.5387813 2.4390549,-1.9946496 1.1299838,-1.7134486 C 1.5341802,-2.2753578 1.8292454,-2.9268556 1.8292454,-3.6713813 C 1.8292454,-5.5606319 0.29211394,-7.0977635 -1.5971367,-7.0977635 z "
         id="path1064" />
    </marker>
    <marker
       style="overflow:visible"
       id="marker1135"
       refX="0.0"
       refY="0.0"
       orient="auto"
       inkscape:stockid="Arrow1Lstart"
       inkscape:isstock="true">
      <path
         transform="scale(0.8) translate(12.5,0)"
         style="fill-rule:evenodd;stroke:#000000;stroke-width:1pt;stroke-opacity:1;fill:#000000;fill-opacity:1"
         d="M 0.0,0.0 L 5.0,-5.0 L -12.5,0.0 L 5.0,5.0 L 0.0,0.0 z "
         id="path1133" />
    </marker>
    <marker
       style="overflow:visible"
       id="marker1113"
       refX="0.0"
       refY="0.0"
       orient="auto"
       inkscape:stockid="Arrow1Lstart"
       inkscape:isstock="true">
      <path
         transform="scale(0.8) translate(12.5,0)"
         style="fill-rule:evenodd;stroke:#000000;stroke-width:1pt;stroke-opacity:1;fill:#000000;fill-opacity:1"
         d="M 0.0,0.0 L 5.0,-5.0 L -12.5,0.0 L 5.0,5.0 L 0.0,0.0 z "
         id="path1111" />
    </marker>
    <marker
       style="overflow:visible"
       id="Arrow1Lstart"
       refX="0.0"
       refY="0.0"
       orient="auto"
       inkscape:stockid="Arrow1Lstart"
       inkscape:isstock="true">
      <path
         transform="scale(0.8) translate(12.5,0)"
         style="fill-rule:evenodd;stroke:#000000;stroke-width:1pt;stroke-opacity:1;fill:#000000;fill-opacity:1"
         d="M 0.0,0.0 L 5.0,-5.0 L -12.5,0.0 L 5.0,5.0 L 0.0,0.0 z "
         id="path835" />
    </marker>
  </defs>
  <sodipodi:namedview
     id="base"
     pagecolor="#ffffff"
     bordercolor="#666666"
     borderopacity="1.0"
     inkscape:pageopacity="0.0"
     inkscape:pageshadow="2"
     inkscape:zoom="0.49497475"
     inkscape:cx="-553.95946"
     inkscape:cy="251.0606"
     inkscape:document-units="mm"
     inkscape:current-layer="layer1"
     inkscape:document-rotation="0"
     showgrid="false"
     units="px"
     inkscape:window-width="1920"
     inkscape:window-height="1017"
     inkscape:window-x="-8"
     inkscape:window-y="-8"
     inkscape:window-maximized="1" />
  <metadata
     id="metadata5">
    <rdf:RDF>
      <cc:Work
         rdf:about="">
        <dc:format>image/svg+xml</dc:format>
        <dc:type
           rdf:resource="http://purl.org/dc/dcmitype/StillImage" />
        <dc:title></dc:title>
      </cc:Work>
    </rdf:RDF>
  </metadata>
  <g
     inkscape:label="Layer 1"
     inkscape:groupmode="layer"
     id="layer1">
    <path
       style="fill:#000000;stroke-width:0.462563;stroke-miterlimit:4;stroke-dasharray:none"
       id="path1435"
       d="m 68.207247,4.2099138 c -0.284432,-0.07243 -0.565805,-0.160871 -0.853296,-0.217309 -0.569957,-0.11189 -1.1446,-0.193573 -1.717326,-0.28734 -0.855681,-0.140094 -1.708339,-0.305471 -2.567876,-0.414242 -1.181125,-0.149468 -2.367186,-0.249179 -3.551904,-0.360192 -3.641206,-0.341198 -5.052146,-0.430274 -8.767817,-0.711272 -6.727639,-0.308369 -13.497589,-0.398724 -20.19974,0.433796 -3.595438,0.446611 -5.137482,0.841612 -8.603346,1.571163 -1.202894,0.371558 -2.418915,0.696253 -3.608682,1.114678 -4.051064,1.424699 -8.052525,3.592421 -11.2001344,6.7501782 -0.5306304,0.532341 -0.9870553,1.145741 -1.480583,1.718614 -0.3645679,0.550493 -0.7741528,1.068945 -1.0937042,1.651479 -0.4312911,0.786234 -0.9001437,2.005033 -0.9334215,2.957513 -0.01399,0.400458 0.06222,0.807789 0.1868392,1.185004 0.2592781,0.784817 0.7231905,1.189956 1.2326223,1.769414 0.3452444,0.214895 0.6731783,0.466537 1.0357331,0.644686 1.1937493,0.586568 2.1235956,0.770816 3.4417551,1.034141 0.8749294,0.174783 1.7528024,0.33525 2.6348094,0.461304 2.971173,0.424631 4.421696,0.47947 7.507326,0.716059 6.763129,0.576674 2.316066,0.271669 9.596266,0.564492 1.741425,0.07005 3.481105,0.199086 5.22344,0.233288 2.898313,0.05689 8.093449,-0.04792 10.99604,-0.200622 1.742888,-0.0917 3.481883,-0.256137 5.222824,-0.384205 3.862472,-0.396697 5.007679,-0.429714 8.719558,-1.117997 1.15381,-0.213948 2.298364,-0.484015 3.442612,-0.751737 1.880185,-0.439908 3.194495,-0.773495 4.985066,-1.42834 0.585042,-0.213962 1.153178,-0.478975 1.729767,-0.718463 1.760871,-0.986705 3.616985,-1.948724 4.990286,-3.541081 0.422102,-0.489433 0.980422,-1.343127 1.260765,-1.948232 0.145347,-0.313723 0.23576,-0.65405 0.353641,-0.981076 0.0093,-0.08084 0.198821,-1.708557 0.196136,-1.771794 -0.01114,-0.262413 -0.08792,-0.51868 -0.167117,-0.766902 -0.08429,-0.26425 -0.169652,-0.536854 -0.320985,-0.763144 -0.628036,-0.9391172 -1.165842,-1.1009392 -2.123318,-1.7074262 -0.649509,-0.319048 -1.287758,-0.66662 -1.948524,-0.957143 -1.499043,-0.65909 -3.594866,-1.39719 -5.115387,-1.939092 -0.878439,-0.313069 -1.753866,-0.636903 -2.638796,-0.927629 -0.831887,-0.273301 -1.674902,-0.505011 -2.510633,-0.764117 -0.699898,-0.216994 -1.39746,-0.442779 -2.096191,-0.664169 -1.483728,-0.621963 -3.045416,-0.95192 -4.566302,-1.433716 -0.174066,-0.273096 -1.952642,1.063261 -1.778577,1.336357 v 0 c 0.260335,0.04794 0.52032,0.09818 0.781004,0.143833 0.363834,0.06372 0.732653,0.09793 1.092509,0.184275 1.007656,0.241771 1.970428,0.679368 2.990213,0.870815 3.587585,0.990685 0.796747,0.170905 4.590936,1.433789 0.899679,0.299456 1.813075,0.550752 2.706465,0.871648 0.867943,0.311756 1.71857,0.677794 2.574896,1.025361 2.804904,1.138467 1.823325,0.700951 4.294399,1.9570052 0.415924,0.300014 0.862919,0.554588 1.247774,0.900039 0.289075,0.259478 0.867334,1.028008 0.994841,1.483385 0.06966,0.248748 0.04615,0.51763 0.06232,0.777028 0.06385,1.024428 0.07623,0.608638 -0.16711,1.670087 -0.105201,0.306351 -0.185073,0.624416 -0.315608,0.919056 -0.368318,0.831356 -0.681225,1.2135 -1.281405,1.891181 -0.260698,0.294363 -0.709571,0.451885 -0.819166,0.842534 -0.06884,0.245362 0.857126,-0.420766 0.660813,-0.278087 -0.438902,0.318989 -0.930992,0.541847 -1.396488,0.812769 -1.6221,0.717893 -2.455912,1.129903 -4.215873,1.695978 -1.983499,0.637973 -4.265506,1.147755 -6.284513,1.543572 -4.490485,0.880343 -4.17905,0.744583 -8.905117,1.283668 -2.355884,0.168202 -8.580472,0.638995 -10.837803,0.688046 -1.797649,0.03906 -3.596142,-0.0271 -5.393563,-0.07708 C 30.591628,24.097306 25.702041,23.68808 20.805098,23.347192 18.216256,23.044455 16.150519,22.840829 13.6059,22.409597 11.743352,22.093955 9.5237796,21.672635 7.7764152,20.826796 7.4268603,20.65759 7.108444,20.420957 6.7744584,20.218038 6.5385563,19.974165 6.256859,19.773597 6.0667519,19.486419 5.5025517,18.634127 5.309014,17.150651 5.5932005,16.161664 5.9398473,14.955305 6.6817808,14.041232 7.3495949,13.04232 c 2.141939,-2.43008 0.8645208,-1.119185 3.4288041,-3.4142062 0.217755,-0.19489 0.401697,-0.441226 0.646799,-0.593082 2.900597,-1.797093 6.071951,-2.923083 9.29781,-3.803377 1.401701,-0.338262 2.79194,-0.738399 4.205102,-1.014784 1.504427,-0.294233 3.022318,-0.505934 4.540929,-0.695752 3.998884,-0.499835 5.99771,-0.595655 10.034902,-0.668148 1.726947,-0.03101 3.455351,-0.07086 5.181547,-0.0074 1.59601,0.05865 3.185608,0.24896 4.778412,0.37344 1.561085,0.08942 3.124275,0.142781 4.683252,0.268272 2.820465,0.227036 4.674914,0.495127 7.407763,0.960197 1.516513,0.258077 2.627534,0.469033 4.06711,0.842162 0.267175,0.06925 0.529248,0.159942 0.793873,0.239913 0.171885,0.275054 1.963231,-1.044563 1.791346,-1.319617 z" />
  </g>
</svg>
